<svg version="1.1" xmlns="http://www.w3.org/2000/svg" viewBox="0 0 1045.6650969373763 261.05952380952385" width="1045.6650969373763" height="261.05952380952385" filter="invert(93%) hue-rotate(180deg)">
  <!-- svg-source:excalidraw -->
  
  <defs>
    <style class="style-fonts">
      @font-face {
        font-family: "Virgil";
        src: url("https://excalidraw.com/Virgil.woff2");
      }
      @font-face {
        font-family: "Cascadia";
        src: url("https://excalidraw.com/Cascadia.woff2");
      }
      @font-face {
        font-family: "Assistant";
        src: url("https://excalidraw.com/Assistant-Regular.woff2");
      }
    </style>
    
  </defs>
  <g stroke-linecap="round" transform="translate(468.56823794483876 10.5) rotate(0 55.5 26.5)"><path d="M13.25 0 C47.72 -0.79, 79.93 -1.05, 97.75 0 M13.25 0 C33.02 0.14, 54.5 -0.32, 97.75 0 M97.75 0 C105.14 -1.98, 109.79 2.48, 111 13.25 M97.75 0 C108.73 0.5, 110.56 5.87, 111 13.25 M111 13.25 C112.38 21.12, 112.15 32.61, 111 39.75 M111 13.25 C111.42 18.67, 110.98 26.15, 111 39.75 M111 39.75 C109.73 49.24, 106.63 52.97, 97.75 53 M111 39.75 C110.44 46.28, 108.22 50.73, 97.75 53 M97.75 53 C63.46 55.54, 31.64 52.9, 13.25 53 M97.75 53 C77.29 52.57, 55.72 52.94, 13.25 53 M13.25 53 C3.79 54.21, -0.56 50.08, 0 39.75 M13.25 53 C3.13 54.72, 2.11 47.7, 0 39.75 M0 39.75 C-0.97 30.2, -1.33 23.09, 0 13.25 M0 39.75 C-0.58 31.19, -1.13 21.06, 0 13.25 M0 13.25 C-1.78 5.52, 3.01 0.99, 13.25 0 M0 13.25 C1.47 3.76, 4.07 -1.44, 13.25 0" stroke="#1e1e1e" stroke-width="2" fill="none"></path></g><g transform="translate(491.5482718193505 24.5) rotate(0 32.51996612548828 12.5)"><text x="32.51996612548828" y="17.52" font-family="Virgil, Segoe UI Emoji" font-size="20px" fill="#1e1e1e" text-anchor="middle" style="white-space: pre;" direction="ltr" dominant-baseline="alphabetic">Cliente</text></g><g stroke-linecap="round" transform="translate(669.0682379448388 10) rotate(0 75.5 26.5)"><path d="M13.25 0 C58.43 1.79, 100.02 -0.31, 137.75 0 M13.25 0 C60.06 0.12, 107.41 -1.47, 137.75 0 M137.75 0 C145.14 0.11, 151.22 5.29, 151 13.25 M137.75 0 C147.83 -2.08, 151.82 5.77, 151 13.25 M151 13.25 C151.91 22.15, 149.17 33.8, 151 39.75 M151 13.25 C150.71 22.3, 151.51 29.82, 151 39.75 M151 39.75 C152.71 48.54, 146.75 53.72, 137.75 53 M151 39.75 C150.11 50.79, 147.43 52.94, 137.75 53 M137.75 53 C100.05 52.39, 60.98 53.67, 13.25 53 M137.75 53 C95.69 51.63, 53.57 52.27, 13.25 53 M13.25 53 C5.74 51.62, 0.11 46.99, 0 39.75 M13.25 53 C3.74 53.59, -1.36 48.79, 0 39.75 M0 39.75 C-1.88 32.1, -1.63 23.98, 0 13.25 M0 39.75 C0.53 34.12, 0.79 29.58, 0 13.25 M0 13.25 C1.92 4.23, 3.75 1.72, 13.25 0 M0 13.25 C-0.57 3.29, 5.78 -0.69, 13.25 0" stroke="#1e1e1e" stroke-width="2" fill="none"></path></g><g transform="translate(691.3482977592919 24) rotate(0 53.219940185546875 12.5)"><text x="53.219940185546875" y="17.52" font-family="Virgil, Segoe UI Emoji" font-size="20px" fill="#1e1e1e" text-anchor="middle" style="white-space: pre;" direction="ltr" dominant-baseline="alphabetic">TipoCliente</text></g><g stroke-linecap="round" transform="translate(259.06823794483876 11) rotate(0 56 26.5)"><path d="M13.25 0 C36.62 1.16, 60.58 -2.17, 98.75 0 M13.25 0 C34.28 -0.51, 54.69 0.15, 98.75 0 M98.75 0 C106.18 -1.18, 112.43 6.38, 112 13.25 M98.75 0 C107.94 2.02, 110.41 2.52, 112 13.25 M112 13.25 C112.7 23.95, 112.96 29.89, 112 39.75 M112 13.25 C111.97 23.14, 112.52 31.77, 112 39.75 M112 39.75 C113.27 49.84, 106.85 54.8, 98.75 53 M112 39.75 C111.32 50.27, 105.61 53.85, 98.75 53 M98.75 53 C65.11 53.3, 30.18 54.91, 13.25 53 M98.75 53 C74.02 53.78, 50.36 53.86, 13.25 53 M13.25 53 C5.52 52.77, 0.96 50.27, 0 39.75 M13.25 53 C5.41 54.01, -1.04 48.31, 0 39.75 M0 39.75 C1.12 29.93, -0.28 20.3, 0 13.25 M0 39.75 C0.04 31.91, -0.65 23.47, 0 13.25 M0 13.25 C-1.55 3.7, 3.44 -0.82, 13.25 0 M0 13.25 C1.39 6.03, 4.87 2.12, 13.25 0" stroke="#1e1e1e" stroke-width="2" fill="none"></path></g><g transform="translate(280.4882666313622 25) rotate(0 34.57997131347656 12.5)"><text x="34.57997131347656" y="17.52" font-family="Virgil, Segoe UI Emoji" font-size="20px" fill="#1e1e1e" text-anchor="middle" style="white-space: pre;" direction="ltr" dominant-baseline="alphabetic">Cuenta</text></g><g stroke-linecap="round" transform="translate(48.06823794483876 13) rotate(0 75.50000000000001 26.5)"><path d="M13.25 0 C40.21 -1.03, 71.21 -1.59, 137.75 0 M13.25 0 C60.02 -0.56, 108.31 -0.43, 137.75 0 M137.75 0 C146.47 -0.49, 149.43 3.34, 151 13.25 M137.75 0 C147.16 0.18, 151.96 4.63, 151 13.25 M151 13.25 C152.29 18.99, 152.74 29.13, 151 39.75 M151 13.25 C151.81 23.81, 150.03 33.07, 151 39.75 M151 39.75 C149.77 48.84, 145.03 51.57, 137.75 53 M151 39.75 C148.74 50.83, 145.84 51.68, 137.75 53 M137.75 53 C113.29 52.75, 86.6 53.6, 13.25 53 M137.75 53 C110.12 51.75, 81.58 52.46, 13.25 53 M13.25 53 C3.94 52.95, -0.72 50.15, 0 39.75 M13.25 53 C5.3 54.78, -1.87 50.21, 0 39.75 M0 39.75 C0.56 32.2, 0.92 26.38, 0 13.25 M0 39.75 C1.05 28.99, 0.01 21.09, 0 13.25 M0 13.25 C-0.27 3.25, 4 -1.1, 13.25 0 M0 13.25 C-2 4.32, 2.26 -0.01, 13.25 0" stroke="#1e1e1e" stroke-width="2" fill="none"></path></g><g transform="translate(68.2882925713036 27) rotate(0 55.279945373535156 12.5)"><text x="55.279945373535156" y="17.52" font-family="Virgil, Segoe UI Emoji" font-size="20px" fill="#1e1e1e" text-anchor="middle" style="white-space: pre;" direction="ltr" dominant-baseline="alphabetic">TipoCuenta</text></g><g stroke-linecap="round" transform="translate(663.6196421324414 195.22454697500467) rotate(0 93 26.49999999999997)"><path d="M13.25 0 C50.55 0.18, 85.46 -0.65, 172.75 0 M13.25 0 C50.55 -0.56, 86.64 -0.53, 172.75 0 M172.75 0 C182.41 0.35, 184.61 4.96, 186 13.25 M172.75 0 C183.2 1.62, 184.31 3.07, 186 13.25 M186 13.25 C185.07 23.31, 187.6 35.34, 186 39.75 M186 13.25 C186.39 19.87, 185.58 24.44, 186 39.75 M186 39.75 C184.77 48.4, 183.22 54.08, 172.75 53 M186 39.75 C187.64 47.68, 183.37 51.38, 172.75 53 M172.75 53 C121.9 52.98, 69.42 51.01, 13.25 53 M172.75 53 C119.78 54.39, 68.22 54.05, 13.25 53 M13.25 53 C3.68 53.25, -1.99 49.2, 0 39.75 M13.25 53 C4.45 52.02, 0.34 46.55, 0 39.75 M0 39.75 C0.46 31.46, 1.55 26.37, 0 13.25 M0 39.75 C-0.19 31.02, -0.11 20.14, 0 13.25 M0 13.25 C1.2 5.52, 3.09 -1.61, 13.25 0 M0 13.25 C-2.25 3.71, 5.89 0.11, 13.25 0" stroke="#1e1e1e" stroke-width="2" fill="none"></path></g><g transform="translate(737.0196589171094 209.22454697500467) rotate(0 19.59998321533203 12.5)"><text x="19.59998321533203" y="17.52" font-family="Virgil, Segoe UI Emoji" font-size="20px" fill="#1e1e1e" text-anchor="middle" style="white-space: pre;" direction="ltr" dominant-baseline="alphabetic">Bien</text></g><g stroke-linecap="round" transform="translate(467.06823794483876 108) rotate(0 55.5 26.5)"><path d="M13.25 0 C32.91 -1.56, 52.43 1.11, 97.75 0 M13.25 0 C40.77 0.66, 68.83 0.38, 97.75 0 M97.75 0 C108.37 1.08, 112.66 4.93, 111 13.25 M97.75 0 C106.46 -0.53, 109.32 5.81, 111 13.25 M111 13.25 C110.38 21.51, 110.53 27.46, 111 39.75 M111 13.25 C110.27 23.92, 111.33 32.32, 111 39.75 M111 39.75 C112.4 47.26, 107.05 52.7, 97.75 53 M111 39.75 C111.76 48.84, 105.02 54.81, 97.75 53 M97.75 53 C75.78 52.97, 54.67 54.59, 13.25 53 M97.75 53 C74.37 52.01, 51.75 53.35, 13.25 53 M13.25 53 C5.18 52, -1.91 49.24, 0 39.75 M13.25 53 C4.14 53.24, -1.61 49.45, 0 39.75 M0 39.75 C1.15 34.77, 1.72 26.41, 0 13.25 M0 39.75 C0.08 31.14, 0.39 21.16, 0 13.25 M0 13.25 C0.18 5.49, 4.14 1.15, 13.25 0 M0 13.25 C-1.77 4.26, 5.51 -0.58, 13.25 0" stroke="#1e1e1e" stroke-width="2" fill="none"></path></g><g transform="translate(488.3582693779442 122) rotate(0 34.20996856689453 12.5)"><text x="34.20996856689453" y="17.52" font-family="Virgil, Segoe UI Emoji" font-size="20px" fill="#1e1e1e" text-anchor="middle" style="white-space: pre;" direction="ltr" dominant-baseline="alphabetic">Compra</text></g><g stroke-linecap="round" transform="translate(246.80321641825958 105.69507080880857) rotate(0 69.49999999999997 27)"><path d="M13.5 0 C41.93 0.87, 66.55 1.81, 125.5 0 M13.5 0 C39.05 0.43, 63.15 1.76, 125.5 0 M125.5 0 C132.94 -1.07, 140.13 5.55, 139 13.5 M125.5 0 C134.27 1.26, 140.15 5.78, 139 13.5 M139 13.5 C138.92 22.08, 137.66 29.4, 139 40.5 M139 13.5 C138.58 23.69, 138.65 31.56, 139 40.5 M139 40.5 C138.49 49.03, 133.06 55.34, 125.5 54 M139 40.5 C137.41 49.37, 135.66 52.06, 125.5 54 M125.5 54 C83.39 52.92, 36.13 53.04, 13.5 54 M125.5 54 C101.73 55.17, 77.58 55.26, 13.5 54 M13.5 54 C4.18 52.11, -0.81 48.86, 0 40.5 M13.5 54 C5.89 53.54, 1.65 50.13, 0 40.5 M0 40.5 C-0.37 32.69, 1.76 26.64, 0 13.5 M0 40.5 C-0.16 32.44, 0.08 22.42, 0 13.5 M0 13.5 C-0.29 3.68, 3.8 -1.31, 13.5 0 M0 13.5 C0.74 5.34, 3.71 1.14, 13.5 0" stroke="#1e1e1e" stroke-width="2" fill="none"></path></g><g transform="translate(258.08326097392364 120.19507080880857) rotate(0 58.21995544433594 12.5)"><text x="58.21995544433594" y="17.52" font-family="Virgil, Segoe UI Emoji" font-size="20px" fill="#1e1e1e" text-anchor="middle" style="white-space: pre;" direction="ltr" dominant-baseline="alphabetic">Transaccion</text></g><g stroke-linecap="round" transform="translate(10 105.53716503533713) rotate(0 93 26.5)"><path d="M13.25 0 C72.92 0.96, 136.77 -2.96, 172.75 0 M13.25 0 C46.32 0.9, 80.64 0.81, 172.75 0 M172.75 0 C179.84 0.91, 184.56 6.35, 186 13.25 M172.75 0 C179.42 0.21, 188.11 2.79, 186 13.25 M186 13.25 C186.01 19.68, 186.32 27.05, 186 39.75 M186 13.25 C186.85 19.26, 185.27 26.02, 186 39.75 M186 39.75 C184.55 47.81, 181.03 51.2, 172.75 53 M186 39.75 C184.64 50.22, 179.3 50.98, 172.75 53 M172.75 53 C122.79 50.7, 71.43 53.22, 13.25 53 M172.75 53 C138.5 50.9, 102.06 52.17, 13.25 53 M13.25 53 C4.07 53.54, 0.19 50.3, 0 39.75 M13.25 53 C3.82 50.76, 1.07 49.43, 0 39.75 M0 39.75 C-0.15 30.14, -0.9 23.76, 0 13.25 M0 39.75 C0.14 33.87, -0.51 28.22, 0 13.25 M0 13.25 C0.02 5.21, 3.42 -1.71, 13.25 0 M0 13.25 C1.49 6.21, 4.29 1.27, 13.25 0" stroke="#1e1e1e" stroke-width="2" fill="none"></path></g><g transform="translate(24.08007049560547 119.53716503533713) rotate(0 78.91992950439453 12.5)"><text x="78.91992950439453" y="17.52" font-family="Virgil, Segoe UI Emoji" font-size="20px" fill="#1e1e1e" text-anchor="middle" style="white-space: pre;" direction="ltr" dominant-baseline="alphabetic">TipoTransaccion</text></g><g stroke-linecap="round"><g transform="translate(582.5250579226155 37.5) rotate(0 43.666666666666686 0.38888888888888573)"><path d="M0.42 -0.62 C15.04 -0.72, 72.31 -0.04, 86.98 0.14 M-0.81 1.67 C13.67 1.66, 70.99 1.35, 85.85 1.35" stroke="#1e1e1e" stroke-width="2" fill="none"></path></g></g><mask></mask><g stroke-linecap="round"><g transform="translate(258.3343905364393 38.7667491500755) rotate(0 -28.5 0.5)"><path d="M-1.08 -0.72 C-10.39 -0.43, -47.12 1.23, -56.58 1.44 M0.55 1.51 C-8.82 1.46, -47.99 -0.47, -57.31 -0.45" stroke="#1e1e1e" stroke-width="2" fill="none"></path></g></g><mask></mask><g stroke-linecap="round"><g transform="translate(372.86927068613716 37.9549458602948) rotate(0 47.891348567765476 0.5409220166989712)"><path d="M0.29 -0.86 C16.21 -0.88, 79.8 -0.45, 95.74 0.06 M-1.02 1.3 C14.72 1.39, 78.73 1.2, 94.77 1.07" stroke="#1e1e1e" stroke-width="2" fill="none"></path></g></g><mask></mask><g stroke-linecap="round"><g transform="translate(318.45412782188896 64.97164785321945) rotate(0 -0.5 21)"><path d="M-0.1 -0.08 C-0.27 6.87, -0.46 35.02, -0.58 42.12 M-0.81 -0.6 C-1.06 6.15, -0.76 34.16, -0.8 41.22" stroke="#1e1e1e" stroke-width="2" fill="none"></path></g></g><mask></mask><g stroke-linecap="round"><g transform="translate(754.7955648499628 157.07188726295863) rotate(0 0.5 18)"><path d="M0.02 -0.32 C0.23 5.73, 0.66 30.43, 0.77 36.55 M-0.63 0.71 C-0.47 6.6, 0.08 30.06, 0.22 35.87" stroke="#1e1e1e" stroke-width="2" fill="none"></path></g></g><mask></mask><g stroke-linecap="round"><g transform="translate(246.31796507447564 131.55633149216345) rotate(0 -25.5 0.5000000000000284)"><path d="M-0.59 -1.05 C-9.27 -0.67, -43.64 1.36, -51.96 1.79 M1.3 1.01 C-7.03 1.1, -41.04 0.34, -49.74 0.08" stroke="#1e1e1e" stroke-width="2" fill="none"></path></g></g><mask></mask><g stroke-linecap="round" transform="translate(265.00426551066505 196.25) rotate(0 55.5 26.5)"><path d="M13.25 0 C32.1 -0.35, 48.22 -0.01, 97.75 0 M13.25 0 C45.96 -0.63, 77.72 0.29, 97.75 0 M97.75 0 C107.32 -0.11, 110.71 3.89, 111 13.25 M97.75 0 C104.52 -0.33, 112.72 6.29, 111 13.25 M111 13.25 C111.69 22.43, 110.02 30.79, 111 39.75 M111 13.25 C111.61 19.4, 111.43 27.93, 111 39.75 M111 39.75 C110.47 50.01, 106.87 53.91, 97.75 53 M111 39.75 C110.72 49.61, 105.11 50.72, 97.75 53 M97.75 53 C69.58 53.12, 38.63 54.08, 13.25 53 M97.75 53 C74.32 51.33, 50.97 52.82, 13.25 53 M13.25 53 C5.72 52.06, -0.87 50.47, 0 39.75 M13.25 53 C2.9 52.45, -2.23 50.35, 0 39.75 M0 39.75 C0.48 31.61, 1.2 20.4, 0 13.25 M0 39.75 C-0.72 32.2, -0.71 24.52, 0 13.25 M0 13.25 C0.57 2.97, 5.22 1.41, 13.25 0 M0 13.25 C-1.93 4.74, 4.68 1.13, 13.25 0" stroke="#1e1e1e" stroke-width="2" fill="none"></path></g><g transform="translate(288.08429785929786 210.25) rotate(0 32.41996765136719 12.5)"><text x="32.41996765136719" y="17.52" font-family="Virgil, Segoe UI Emoji" font-size="20px" fill="#1e1e1e" text-anchor="middle" style="white-space: pre;" direction="ltr" dominant-baseline="alphabetic">Débito</text></g><g stroke-linecap="round" transform="translate(78.00426551066505 195.25) rotate(0 55.5 26.5)"><path d="M13.25 0 C36.13 1.73, 59.03 2.05, 97.75 0 M13.25 0 C29.76 1.22, 47.79 1.11, 97.75 0 M97.75 0 C106.66 2, 110.96 2.57, 111 13.25 M97.75 0 C108.73 1.31, 112.53 2.72, 111 13.25 M111 13.25 C110.41 20.64, 110.75 32.01, 111 39.75 M111 13.25 C110.86 21.53, 111.84 31.66, 111 39.75 M111 39.75 C112.54 48.44, 106.38 53.72, 97.75 53 M111 39.75 C112.46 47.11, 104.55 51.8, 97.75 53 M97.75 53 C64.6 54.98, 31.71 54.74, 13.25 53 M97.75 53 C77.62 53.84, 57.84 53.84, 13.25 53 M13.25 53 C6.12 52.36, -1.59 48.32, 0 39.75 M13.25 53 C2.51 51.64, -0.18 47.34, 0 39.75 M0 39.75 C0.7 33.56, 1.35 30.1, 0 13.25 M0 39.75 C0.21 29.61, 0.46 18.91, 0 13.25 M0 13.25 C1.71 3.54, 2.7 -1.51, 13.25 0 M0 13.25 C1.58 4.36, 2.92 0.85, 13.25 0" stroke="#1e1e1e" stroke-width="2" fill="none"></path></g><g transform="translate(90.95431586466896 209.25) rotate(0 42.549949645996094 12.5)"><text x="42.549949645996094" y="17.52" font-family="Virgil, Segoe UI Emoji" font-size="20px" fill="#1e1e1e" text-anchor="middle" style="white-space: pre;" direction="ltr" dominant-baseline="alphabetic">Depósito</text></g><g stroke-linecap="round"><g transform="translate(386.0081011284401 132.98729290190386) rotate(0 40.5 0.5)"><path d="M0.46 0.55 C13.97 0.72, 67.57 1.36, 81.06 1.36 M-0.76 -0.21 C12.61 -0.44, 66.55 -0.88, 80.14 -0.57" stroke="#1e1e1e" stroke-width="2" fill="none"></path></g></g><mask></mask><g stroke-linecap="round"><g transform="translate(300.8329036124347 160.38168587572875) rotate(0 -85 18.50000000000003)"><path d="M-0.39 0.05 C-28.83 6.17, -142.3 31.08, -170.47 37.39 M1.61 -0.97 C-27.04 4.72, -143.08 29.3, -171.66 35.48" stroke="#1e1e1e" stroke-width="2" fill="none"></path></g></g><mask></mask><g stroke-linecap="round"><g transform="translate(316.0081011284401 156.98729290190386) rotate(0 -0.5 21)"><path d="M-0.2 -0.1 C-0.26 6.82, -0.42 34.59, -0.54 41.55 M0.7 -0.62 C0.62 6.35, -0.42 34.89, -0.74 42.02" stroke="#1e1e1e" stroke-width="2" fill="none"></path></g></g><mask></mask><g stroke-linecap="round" transform="translate(430.6788686852683 198.0595238095239) rotate(0 93 26.49999999999997)"><path d="M13.25 0 C59.56 -1.33, 103.83 -0.04, 172.75 0 M13.25 0 C49.69 -0.27, 86.1 -0.81, 172.75 0 M172.75 0 C182.85 1.04, 186.83 2.53, 186 13.25 M172.75 0 C182.37 -1.71, 186.85 3.92, 186 13.25 M186 13.25 C187.16 20.6, 186.84 24.83, 186 39.75 M186 13.25 C185.32 19.58, 186.77 25.09, 186 39.75 M186 39.75 C187.06 49.03, 183.18 51.06, 172.75 53 M186 39.75 C185.49 47.53, 179.89 53.76, 172.75 53 M172.75 53 C113.56 52.84, 54.64 52.78, 13.25 53 M172.75 53 C139.17 53.85, 105.77 52.24, 13.25 53 M13.25 53 C3.43 54.14, 1.84 49.01, 0 39.75 M13.25 53 C5.59 54.41, 1.94 48.23, 0 39.75 M0 39.75 C0.04 33.06, 0.5 22.89, 0 13.25 M0 39.75 C0.36 32.75, 0.48 26.76, 0 13.25 M0 13.25 C0.65 5.28, 5.18 -1.46, 13.25 0 M0 13.25 C-0.08 3.18, 5.12 -1.87, 13.25 0" stroke="#1e1e1e" stroke-width="2" fill="none"></path></g><g transform="translate(483.3789114098777 212.0595238095239) rotate(0 40.299957275390625 12.5)"><text x="40.299957275390625" y="17.52" font-family="Virgil, Segoe UI Emoji" font-size="20px" fill="#1e1e1e" text-anchor="middle" style="white-space: pre;" direction="ltr" dominant-baseline="alphabetic">TipoBien</text></g><g stroke-linecap="round"><g transform="translate(662.7852845648156 221.74676524080814) rotate(0 -22.72222222222217 0.5000000000000284)"><path d="M0.26 -0.24 C-7.28 0.08, -37.72 1.15, -45.4 1.35 M-0.27 -0.83 C-7.87 -0.63, -38.4 0.17, -45.81 0.56" stroke="#1e1e1e" stroke-width="2" fill="none"></path></g></g><mask></mask><g stroke-linecap="round" transform="translate(667.5122020186016 114.50396825396837) rotate(0 77.16666666666663 20.77777777777777)"><path d="M10.39 0 C38.34 -0.72, 65.48 -0.19, 143.94 0 M10.39 0 C54.26 -0.14, 97.66 -1.93, 143.94 0 M143.94 0 C152.48 1.88, 153.54 1.68, 154.33 10.39 M143.94 0 C149.38 0.06, 154.5 3.15, 154.33 10.39 M154.33 10.39 C153.53 15.73, 156.37 22.4, 154.33 31.17 M154.33 10.39 C155.06 18.86, 153.33 26.32, 154.33 31.17 M154.33 31.17 C154.27 37.5, 149.07 39.59, 143.94 41.56 M154.33 31.17 C154.22 36.27, 149.86 43.4, 143.94 41.56 M143.94 41.56 C101.24 40.13, 57.88 39.44, 10.39 41.56 M143.94 41.56 C116.58 42, 88.56 41.12, 10.39 41.56 M10.39 41.56 C3.99 40.94, 1.37 39.41, 0 31.17 M10.39 41.56 C2.54 40.99, 1.87 38.32, 0 31.17 M0 31.17 C-1.97 22.31, 1.3 14.97, 0 10.39 M0 31.17 C0.04 25.42, 0.46 17.6, 0 10.39 M0 10.39 C-1.3 1.91, 4.16 0.8, 10.39 0 M0 10.39 C-0.3 5.34, 4.03 1.02, 10.39 0" stroke="#1e1e1e" stroke-width="2" fill="none"></path></g><g transform="translate(674.1489309411276 122.78174603174614) rotate(0 70.52993774414062 12.5)"><text x="70.52993774414062" y="17.52" font-family="Virgil, Segoe UI Emoji" font-size="20px" fill="#1e1e1e" text-anchor="middle" style="white-space: pre;" direction="ltr" dominant-baseline="alphabetic">CompraDetalle</text></g><g stroke-linecap="round"><g transform="translate(578.8181541176532 137.15367470777966) rotate(0 43.666666666666686 0.38888888888888573)"><path d="M0.52 -1.14 C15.21 -1.31, 73.72 -0.39, 88.14 -0.16 M-0.67 0.88 C13.93 0.75, 73.15 0.82, 87.62 0.88" stroke="#1e1e1e" stroke-width="2" fill="none"></path></g></g><mask></mask><g stroke-linecap="round" transform="translate(884.6650969373763 111.40357211098473) rotate(0 75.5 21.805689899995457)"><path d="M10.9 0 C43.41 1.34, 71.64 -0.53, 140.1 0 M10.9 0 C47.53 0.54, 85.36 1.66, 140.1 0 M140.1 0 C148.22 -1.86, 151.44 2.83, 151 10.9 M140.1 0 C148.57 -0.34, 151.91 3.49, 151 10.9 M151 10.9 C152.92 17.55, 151.81 25.81, 151 32.71 M151 10.9 C151.58 15.46, 149.98 21.69, 151 32.71 M151 32.71 C151.15 39.51, 147.95 45.28, 140.1 43.61 M151 32.71 C151.78 39.32, 149.26 45.67, 140.1 43.61 M140.1 43.61 C88.82 43.49, 35.9 44.83, 10.9 43.61 M140.1 43.61 C103.94 43.54, 67.06 43.95, 10.9 43.61 M10.9 43.61 C2.56 45.45, 1.18 39.46, 0 32.71 M10.9 43.61 C5 42.18, 1.34 38.23, 0 32.71 M0 32.71 C-1.88 27.49, -1.63 17.57, 0 10.9 M0 32.71 C0.27 26.1, -1.08 19.01, 0 10.9 M0 10.9 C0.76 3.96, 3.84 0.59, 10.9 0 M0 10.9 C-2.01 3.68, 1.39 -1.88, 10.9 0" stroke="#1e1e1e" stroke-width="2" fill="none"></path></g><g transform="translate(920.055142103392 120.70926201098018) rotate(0 40.109954833984375 12.5)"><text x="40.109954833984375" y="17.52" font-family="Virgil, Segoe UI Emoji" font-size="20px" fill="#1e1e1e" text-anchor="middle" style="white-space: pre;" direction="ltr" dominant-baseline="alphabetic">Historial</text></g></svg>