<svg version="1.1" xmlns="http://www.w3.org/2000/svg" viewBox="0 0 708.4789724781308 448.45566707792267" width="708.4789724781308" height="448.45566707792267" filter="invert(93%) hue-rotate(180deg)">
  <!-- svg-source:excalidraw -->
  
  <defs>
    <style class="style-fonts">
      @font-face {
        font-family: "Virgil";
        src: url("https://excalidraw.com/Virgil.woff2");
      }
      @font-face {
        font-family: "Cascadia";
        src: url("https://excalidraw.com/Cascadia.woff2");
      }
      @font-face {
        font-family: "Assistant";
        src: url("https://excalidraw.com/Assistant-Regular.woff2");
      }
    </style>
    
  </defs>
  <g stroke-linecap="round" transform="translate(270.1707587880279 289.7411772076753) rotate(0 55.5 26.5)"><path d="M13.25 0 C47.72 -0.79, 79.93 -1.05, 97.75 0 M13.25 0 C33.02 0.14, 54.5 -0.32, 97.75 0 M97.75 0 C105.14 -1.98, 109.79 2.48, 111 13.25 M97.75 0 C108.73 0.5, 110.56 5.87, 111 13.25 M111 13.25 C112.38 21.12, 112.15 32.61, 111 39.75 M111 13.25 C111.42 18.67, 110.98 26.15, 111 39.75 M111 39.75 C109.73 49.24, 106.63 52.97, 97.75 53 M111 39.75 C110.44 46.28, 108.22 50.73, 97.75 53 M97.75 53 C63.46 55.54, 31.64 52.9, 13.25 53 M97.75 53 C77.29 52.57, 55.72 52.94, 13.25 53 M13.25 53 C3.79 54.21, -0.56 50.08, 0 39.75 M13.25 53 C3.13 54.72, 2.11 47.7, 0 39.75 M0 39.75 C-0.97 30.2, -1.33 23.09, 0 13.25 M0 39.75 C-0.58 31.19, -1.13 21.06, 0 13.25 M0 13.25 C-1.78 5.52, 3.01 0.99, 13.25 0 M0 13.25 C1.47 3.76, 4.07 -1.44, 13.25 0" stroke="#1e1e1e" stroke-width="2" fill="none"></path></g><g transform="translate(293.15079266253963 303.7411772076753) rotate(0 32.51996612548828 12.5)"><text x="32.51996612548828" y="17.52" font-family="Virgil, Segoe UI Emoji" font-size="20px" fill="#1e1e1e" text-anchor="middle" style="white-space: pre;" direction="ltr" dominant-baseline="alphabetic">Cliente</text></g><g stroke-linecap="round" transform="translate(250.88853837653016 385.45566707792267) rotate(0 75.5 26.5)"><path d="M13.25 0 C58.43 1.79, 100.02 -0.31, 137.75 0 M13.25 0 C60.06 0.12, 107.41 -1.47, 137.75 0 M137.75 0 C145.14 0.11, 151.22 5.29, 151 13.25 M137.75 0 C147.83 -2.08, 151.82 5.77, 151 13.25 M151 13.25 C151.91 22.15, 149.17 33.8, 151 39.75 M151 13.25 C150.71 22.3, 151.51 29.82, 151 39.75 M151 39.75 C152.71 48.54, 146.75 53.72, 137.75 53 M151 39.75 C150.11 50.79, 147.43 52.94, 137.75 53 M137.75 53 C100.05 52.39, 60.98 53.67, 13.25 53 M137.75 53 C95.69 51.63, 53.57 52.27, 13.25 53 M13.25 53 C5.74 51.62, 0.11 46.99, 0 39.75 M13.25 53 C3.74 53.59, -1.36 48.79, 0 39.75 M0 39.75 C-1.88 32.1, -1.63 23.98, 0 13.25 M0 39.75 C0.53 34.12, 0.79 29.58, 0 13.25 M0 13.25 C1.92 4.23, 3.75 1.72, 13.25 0 M0 13.25 C-0.57 3.29, 5.78 -0.69, 13.25 0" stroke="#1e1e1e" stroke-width="2" fill="none"></path></g><g transform="translate(273.1685981909833 399.45566707792267) rotate(0 53.219940185546875 12.5)"><text x="53.219940185546875" y="17.52" font-family="Virgil, Segoe UI Emoji" font-size="20px" fill="#1e1e1e" text-anchor="middle" style="white-space: pre;" direction="ltr" dominant-baseline="alphabetic">TipoCliente</text></g><g stroke-linecap="round" transform="translate(259.06823794483876 13.61712572922687) rotate(0 56 26.5)"><path d="M13.25 0 C36.62 1.16, 60.58 -2.17, 98.75 0 M13.25 0 C34.28 -0.51, 54.69 0.15, 98.75 0 M98.75 0 C106.18 -1.18, 112.43 6.38, 112 13.25 M98.75 0 C107.94 2.02, 110.41 2.52, 112 13.25 M112 13.25 C112.7 23.95, 112.96 29.89, 112 39.75 M112 13.25 C111.97 23.14, 112.52 31.77, 112 39.75 M112 39.75 C113.27 49.84, 106.85 54.8, 98.75 53 M112 39.75 C111.32 50.27, 105.61 53.85, 98.75 53 M98.75 53 C65.11 53.3, 30.18 54.91, 13.25 53 M98.75 53 C74.02 53.78, 50.36 53.86, 13.25 53 M13.25 53 C5.52 52.77, 0.96 50.27, 0 39.75 M13.25 53 C5.41 54.01, -1.04 48.31, 0 39.75 M0 39.75 C1.12 29.93, -0.28 20.3, 0 13.25 M0 39.75 C0.04 31.91, -0.65 23.47, 0 13.25 M0 13.25 C-1.55 3.7, 3.44 -0.82, 13.25 0 M0 13.25 C1.39 6.03, 4.87 2.12, 13.25 0" stroke="#1e1e1e" stroke-width="2" fill="none"></path></g><g transform="translate(280.4882666313622 27.61712572922687) rotate(0 34.57997131347656 12.5)"><text x="34.57997131347656" y="17.52" font-family="Virgil, Segoe UI Emoji" font-size="20px" fill="#1e1e1e" text-anchor="middle" style="white-space: pre;" direction="ltr" dominant-baseline="alphabetic">Cuenta</text></g><g stroke-linecap="round" transform="translate(48.06823794483876 15.61712572922687) rotate(0 75.50000000000001 26.5)"><path d="M13.25 0 C40.21 -1.03, 71.21 -1.59, 137.75 0 M13.25 0 C60.02 -0.56, 108.31 -0.43, 137.75 0 M137.75 0 C146.47 -0.49, 149.43 3.34, 151 13.25 M137.75 0 C147.16 0.18, 151.96 4.63, 151 13.25 M151 13.25 C152.29 18.99, 152.74 29.13, 151 39.75 M151 13.25 C151.81 23.81, 150.03 33.07, 151 39.75 M151 39.75 C149.77 48.84, 145.03 51.57, 137.75 53 M151 39.75 C148.74 50.83, 145.84 51.68, 137.75 53 M137.75 53 C113.29 52.75, 86.6 53.6, 13.25 53 M137.75 53 C110.12 51.75, 81.58 52.46, 13.25 53 M13.25 53 C3.94 52.95, -0.72 50.15, 0 39.75 M13.25 53 C5.3 54.78, -1.87 50.21, 0 39.75 M0 39.75 C0.56 32.2, 0.92 26.38, 0 13.25 M0 39.75 C1.05 28.99, 0.01 21.09, 0 13.25 M0 13.25 C-0.27 3.25, 4 -1.1, 13.25 0 M0 13.25 C-2 4.32, 2.26 -0.01, 13.25 0" stroke="#1e1e1e" stroke-width="2" fill="none"></path></g><g transform="translate(68.2882925713036 29.61712572922687) rotate(0 55.279945373535156 12.5)"><text x="55.279945373535156" y="17.52" font-family="Virgil, Segoe UI Emoji" font-size="20px" fill="#1e1e1e" text-anchor="middle" style="white-space: pre;" direction="ltr" dominant-baseline="alphabetic">TipoCuenta</text></g><g stroke-linecap="round" transform="translate(432.0170012987022 100.49121708332581) rotate(0 93 26.5)"><path d="M13.25 0 C50.55 0.18, 85.46 -0.65, 172.75 0 M13.25 0 C50.55 -0.56, 86.64 -0.53, 172.75 0 M172.75 0 C182.41 0.35, 184.61 4.96, 186 13.25 M172.75 0 C183.2 1.62, 184.31 3.07, 186 13.25 M186 13.25 C185.07 23.31, 187.6 35.34, 186 39.75 M186 13.25 C186.39 19.87, 185.58 24.44, 186 39.75 M186 39.75 C184.77 48.4, 183.22 54.08, 172.75 53 M186 39.75 C187.64 47.68, 183.37 51.38, 172.75 53 M172.75 53 C121.9 52.98, 69.42 51.01, 13.25 53 M172.75 53 C119.78 54.39, 68.22 54.05, 13.25 53 M13.25 53 C3.68 53.25, -1.99 49.2, 0 39.75 M13.25 53 C4.45 52.02, 0.34 46.55, 0 39.75 M0 39.75 C0.46 31.46, 1.55 26.37, 0 13.25 M0 39.75 C-0.19 31.02, -0.11 20.14, 0 13.25 M0 13.25 C1.2 5.52, 3.09 -1.61, 13.25 0 M0 13.25 C-2.25 3.71, 5.89 0.11, 13.25 0" stroke="#1e1e1e" stroke-width="2" fill="none"></path></g><g transform="translate(505.4170180833702 114.49121708332581) rotate(0 19.59998321533203 12.5)"><text x="19.59998321533203" y="17.52" font-family="Virgil, Segoe UI Emoji" font-size="20px" fill="#1e1e1e" text-anchor="middle" style="white-space: pre;" direction="ltr" dominant-baseline="alphabetic">Bien</text></g><g stroke-linecap="round" transform="translate(470.82195476635763 195.5713753472433) rotate(0 55.5 26.5)"><path d="M13.25 0 C32.91 -1.56, 52.43 1.11, 97.75 0 M13.25 0 C40.77 0.66, 68.83 0.38, 97.75 0 M97.75 0 C108.37 1.08, 112.66 4.93, 111 13.25 M97.75 0 C106.46 -0.53, 109.32 5.81, 111 13.25 M111 13.25 C110.38 21.51, 110.53 27.46, 111 39.75 M111 13.25 C110.27 23.92, 111.33 32.32, 111 39.75 M111 39.75 C112.4 47.26, 107.05 52.7, 97.75 53 M111 39.75 C111.76 48.84, 105.02 54.81, 97.75 53 M97.75 53 C75.78 52.97, 54.67 54.59, 13.25 53 M97.75 53 C74.37 52.01, 51.75 53.35, 13.25 53 M13.25 53 C5.18 52, -1.91 49.24, 0 39.75 M13.25 53 C4.14 53.24, -1.61 49.45, 0 39.75 M0 39.75 C1.15 34.77, 1.72 26.41, 0 13.25 M0 39.75 C0.08 31.14, 0.39 21.16, 0 13.25 M0 13.25 C0.18 5.49, 4.14 1.15, 13.25 0 M0 13.25 C-1.77 4.26, 5.51 -0.58, 13.25 0" stroke="#1e1e1e" stroke-width="2" fill="none"></path></g><g transform="translate(492.1119861994631 209.5713753472433) rotate(0 34.20996856689453 12.5)"><text x="34.20996856689453" y="17.52" font-family="Virgil, Segoe UI Emoji" font-size="20px" fill="#1e1e1e" text-anchor="middle" style="white-space: pre;" direction="ltr" dominant-baseline="alphabetic">Compra</text></g><g stroke-linecap="round" transform="translate(246.80321641825958 108.31219653803544) rotate(0 69.49999999999997 27)"><path d="M13.5 0 C41.93 0.87, 66.55 1.81, 125.5 0 M13.5 0 C39.05 0.43, 63.15 1.76, 125.5 0 M125.5 0 C132.94 -1.07, 140.13 5.55, 139 13.5 M125.5 0 C134.27 1.26, 140.15 5.78, 139 13.5 M139 13.5 C138.92 22.08, 137.66 29.4, 139 40.5 M139 13.5 C138.58 23.69, 138.65 31.56, 139 40.5 M139 40.5 C138.49 49.03, 133.06 55.34, 125.5 54 M139 40.5 C137.41 49.37, 135.66 52.06, 125.5 54 M125.5 54 C83.39 52.92, 36.13 53.04, 13.5 54 M125.5 54 C101.73 55.17, 77.58 55.26, 13.5 54 M13.5 54 C4.18 52.11, -0.81 48.86, 0 40.5 M13.5 54 C5.89 53.54, 1.65 50.13, 0 40.5 M0 40.5 C-0.37 32.69, 1.76 26.64, 0 13.5 M0 40.5 C-0.16 32.44, 0.08 22.42, 0 13.5 M0 13.5 C-0.29 3.68, 3.8 -1.31, 13.5 0 M0 13.5 C0.74 5.34, 3.71 1.14, 13.5 0" stroke="#1e1e1e" stroke-width="2" fill="none"></path></g><g transform="translate(258.08326097392364 122.81219653803544) rotate(0 58.21995544433594 12.5)"><text x="58.21995544433594" y="17.52" font-family="Virgil, Segoe UI Emoji" font-size="20px" fill="#1e1e1e" text-anchor="middle" style="white-space: pre;" direction="ltr" dominant-baseline="alphabetic">Transaccion</text></g><g stroke-linecap="round" transform="translate(10 108.154290764564) rotate(0 93 26.5)"><path d="M13.25 0 C72.92 0.96, 136.77 -2.96, 172.75 0 M13.25 0 C46.32 0.9, 80.64 0.81, 172.75 0 M172.75 0 C179.84 0.91, 184.56 6.35, 186 13.25 M172.75 0 C179.42 0.21, 188.11 2.79, 186 13.25 M186 13.25 C186.01 19.68, 186.32 27.05, 186 39.75 M186 13.25 C186.85 19.26, 185.27 26.02, 186 39.75 M186 39.75 C184.55 47.81, 181.03 51.2, 172.75 53 M186 39.75 C184.64 50.22, 179.3 50.98, 172.75 53 M172.75 53 C122.79 50.7, 71.43 53.22, 13.25 53 M172.75 53 C138.5 50.9, 102.06 52.17, 13.25 53 M13.25 53 C4.07 53.54, 0.19 50.3, 0 39.75 M13.25 53 C3.82 50.76, 1.07 49.43, 0 39.75 M0 39.75 C-0.15 30.14, -0.9 23.76, 0 13.25 M0 39.75 C0.14 33.87, -0.51 28.22, 0 13.25 M0 13.25 C0.02 5.21, 3.42 -1.71, 13.25 0 M0 13.25 C1.49 6.21, 4.29 1.27, 13.25 0" stroke="#1e1e1e" stroke-width="2" fill="none"></path></g><g transform="translate(24.08007049560547 122.154290764564) rotate(0 78.91992950439453 12.5)"><text x="78.91992950439453" y="17.52" font-family="Virgil, Segoe UI Emoji" font-size="20px" fill="#1e1e1e" text-anchor="middle" style="white-space: pre;" direction="ltr" dominant-baseline="alphabetic">TipoTransaccion</text></g><g stroke-linecap="round"><g transform="translate(183.92337454338968 314.1297974076845) rotate(0 43.666666666666686 0.3888888888888573)"><path d="M0.42 -0.62 C15.04 -0.72, 72.31 -0.04, 86.98 0.14 M-0.81 1.67 C13.67 1.66, 70.99 1.35, 85.85 1.35" stroke="#1e1e1e" stroke-width="2" fill="none"></path></g></g><mask></mask><g stroke-linecap="round"><g transform="translate(258.3343905364393 41.38387487930237) rotate(0 -28.5 0.5)"><path d="M-1.08 -0.72 C-10.39 -0.43, -47.12 1.23, -56.58 1.44 M0.55 1.51 C-8.82 1.46, -47.99 -0.47, -57.31 -0.45" stroke="#1e1e1e" stroke-width="2" fill="none"></path></g></g><mask></mask><g stroke-linecap="round"><g transform="translate(380.0646159517504 315.62792329020255) rotate(0 47.891348567765476 0.5409220166989712)"><path d="M0.29 -0.86 C16.21 -0.88, 79.8 -0.45, 95.74 0.06 M-1.02 1.3 C14.72 1.39, 78.73 1.2, 94.77 1.07" stroke="#1e1e1e" stroke-width="2" fill="none"></path></g></g><mask></mask><g stroke-linecap="round"><g transform="translate(318.45412782188896 67.58877358244632) rotate(0 -0.5 21)"><path d="M-0.1 -0.08 C-0.27 6.87, -0.46 35.02, -0.58 42.12 M-0.81 -0.6 C-1.06 6.15, -0.76 34.16, -0.8 41.22" stroke="#1e1e1e" stroke-width="2" fill="none"></path></g></g><mask></mask><g stroke-linecap="round"><g transform="translate(527.8504525714343 65.6813919730767) rotate(0 0.5 18)"><path d="M0.02 -0.32 C0.23 5.73, 0.66 30.43, 0.77 36.55 M-0.63 0.71 C-0.47 6.6, 0.08 30.06, 0.22 35.87" stroke="#1e1e1e" stroke-width="2" fill="none"></path></g></g><mask></mask><g stroke-linecap="round"><g transform="translate(246.31796507447564 134.17345722139032) rotate(0 -25.5 0.5000000000000284)"><path d="M-0.59 -1.05 C-9.27 -0.67, -43.64 1.36, -51.96 1.79 M1.3 1.01 C-7.03 1.1, -41.04 0.34, -49.74 0.08" stroke="#1e1e1e" stroke-width="2" fill="none"></path></g></g><mask></mask><g stroke-linecap="round" transform="translate(265.00426551066505 198.86712572922687) rotate(0 55.5 26.5)"><path d="M13.25 0 C32.1 -0.35, 48.22 -0.01, 97.75 0 M13.25 0 C45.96 -0.63, 77.72 0.29, 97.75 0 M97.75 0 C107.32 -0.11, 110.71 3.89, 111 13.25 M97.75 0 C104.52 -0.33, 112.72 6.29, 111 13.25 M111 13.25 C111.69 22.43, 110.02 30.79, 111 39.75 M111 13.25 C111.61 19.4, 111.43 27.93, 111 39.75 M111 39.75 C110.47 50.01, 106.87 53.91, 97.75 53 M111 39.75 C110.72 49.61, 105.11 50.72, 97.75 53 M97.75 53 C69.58 53.12, 38.63 54.08, 13.25 53 M97.75 53 C74.32 51.33, 50.97 52.82, 13.25 53 M13.25 53 C5.72 52.06, -0.87 50.47, 0 39.75 M13.25 53 C2.9 52.45, -2.23 50.35, 0 39.75 M0 39.75 C0.48 31.61, 1.2 20.4, 0 13.25 M0 39.75 C-0.72 32.2, -0.71 24.52, 0 13.25 M0 13.25 C0.57 2.97, 5.22 1.41, 13.25 0 M0 13.25 C-1.93 4.74, 4.68 1.13, 13.25 0" stroke="#1e1e1e" stroke-width="2" fill="none"></path></g><g transform="translate(288.08429785929786 212.86712572922687) rotate(0 32.41996765136719 12.5)"><text x="32.41996765136719" y="17.52" font-family="Virgil, Segoe UI Emoji" font-size="20px" fill="#1e1e1e" text-anchor="middle" style="white-space: pre;" direction="ltr" dominant-baseline="alphabetic">Débito</text></g><g stroke-linecap="round" transform="translate(78.00426551066505 197.86712572922687) rotate(0 55.5 26.5)"><path d="M13.25 0 C36.13 1.73, 59.03 2.05, 97.75 0 M13.25 0 C29.76 1.22, 47.79 1.11, 97.75 0 M97.75 0 C106.66 2, 110.96 2.57, 111 13.25 M97.75 0 C108.73 1.31, 112.53 2.72, 111 13.25 M111 13.25 C110.41 20.64, 110.75 32.01, 111 39.75 M111 13.25 C110.86 21.53, 111.84 31.66, 111 39.75 M111 39.75 C112.54 48.44, 106.38 53.72, 97.75 53 M111 39.75 C112.46 47.11, 104.55 51.8, 97.75 53 M97.75 53 C64.6 54.98, 31.71 54.74, 13.25 53 M97.75 53 C77.62 53.84, 57.84 53.84, 13.25 53 M13.25 53 C6.12 52.36, -1.59 48.32, 0 39.75 M13.25 53 C2.51 51.64, -0.18 47.34, 0 39.75 M0 39.75 C0.7 33.56, 1.35 30.1, 0 13.25 M0 39.75 C0.21 29.61, 0.46 18.91, 0 13.25 M0 13.25 C1.71 3.54, 2.7 -1.51, 13.25 0 M0 13.25 C1.58 4.36, 2.92 0.85, 13.25 0" stroke="#1e1e1e" stroke-width="2" fill="none"></path></g><g transform="translate(90.95431586466896 211.86712572922687) rotate(0 42.549949645996094 12.5)"><text x="42.549949645996094" y="17.52" font-family="Virgil, Segoe UI Emoji" font-size="20px" fill="#1e1e1e" text-anchor="middle" style="white-space: pre;" direction="ltr" dominant-baseline="alphabetic">Depósito</text></g><g stroke-linecap="round"><g transform="translate(332.0430116363408 161.9873512717126) rotate(0 91.38900687040433 17.35417660881822)"><path d="M0.46 0.55 C30.94 6.34, 152.39 29.45, 182.83 35.07 M-0.76 -0.21 C29.57 5.18, 151.36 27.21, 181.92 33.14" stroke="#1e1e1e" stroke-width="2" fill="none"></path></g></g><mask></mask><g stroke-linecap="round"><g transform="translate(300.8329036124347 162.99881160495562) rotate(0 -85 18.50000000000003)"><path d="M-0.39 0.05 C-28.83 6.17, -142.3 31.08, -170.47 37.39 M1.61 -0.97 C-27.04 4.72, -143.08 29.3, -171.66 35.48" stroke="#1e1e1e" stroke-width="2" fill="none"></path></g></g><mask></mask><g stroke-linecap="round"><g transform="translate(316.0081011284401 159.60441863113073) rotate(0 -0.5 21)"><path d="M-0.2 -0.1 C-0.26 6.82, -0.42 34.59, -0.54 41.55 M0.7 -0.62 C0.62 6.35, -0.42 34.89, -0.74 42.02" stroke="#1e1e1e" stroke-width="2" fill="none"></path></g></g><mask></mask><g stroke-linecap="round" transform="translate(435.7878539064352 10) rotate(0 93 26.5)"><path d="M13.25 0 C59.56 -1.33, 103.83 -0.04, 172.75 0 M13.25 0 C49.69 -0.27, 86.1 -0.81, 172.75 0 M172.75 0 C182.85 1.04, 186.83 2.53, 186 13.25 M172.75 0 C182.37 -1.71, 186.85 3.92, 186 13.25 M186 13.25 C187.16 20.6, 186.84 24.83, 186 39.75 M186 13.25 C185.32 19.58, 186.77 25.09, 186 39.75 M186 39.75 C187.06 49.03, 183.18 51.06, 172.75 53 M186 39.75 C185.49 47.53, 179.89 53.76, 172.75 53 M172.75 53 C113.56 52.84, 54.64 52.78, 13.25 53 M172.75 53 C139.17 53.85, 105.77 52.24, 13.25 53 M13.25 53 C3.43 54.14, 1.84 49.01, 0 39.75 M13.25 53 C5.59 54.41, 1.94 48.23, 0 39.75 M0 39.75 C0.04 33.06, 0.5 22.89, 0 13.25 M0 39.75 C0.36 32.75, 0.48 26.76, 0 13.25 M0 13.25 C0.65 5.28, 5.18 -1.46, 13.25 0 M0 13.25 C-0.08 3.18, 5.12 -1.87, 13.25 0" stroke="#1e1e1e" stroke-width="2" fill="none"></path></g><g transform="translate(488.4878966310446 24) rotate(0 40.299957275390625 12.5)"><text x="40.299957275390625" y="17.52" font-family="Virgil, Segoe UI Emoji" font-size="20px" fill="#1e1e1e" text-anchor="middle" style="white-space: pre;" direction="ltr" dominant-baseline="alphabetic">TipoBien</text></g><g stroke-linecap="round" transform="translate(43.66912354390138 393.8958567755896) rotate(0 75.50000000000001 21.805689899995457)"><path d="M10.9 0 C43.41 1.34, 71.64 -0.53, 140.1 0 M10.9 0 C47.53 0.54, 85.36 1.66, 140.1 0 M140.1 0 C148.22 -1.86, 151.44 2.83, 151 10.9 M140.1 0 C148.57 -0.34, 151.91 3.49, 151 10.9 M151 10.9 C152.92 17.55, 151.81 25.81, 151 32.71 M151 10.9 C151.58 15.46, 149.98 21.69, 151 32.71 M151 32.71 C151.15 39.51, 147.95 45.28, 140.1 43.61 M151 32.71 C151.78 39.32, 149.26 45.67, 140.1 43.61 M140.1 43.61 C88.82 43.49, 35.9 44.83, 10.9 43.61 M140.1 43.61 C103.94 43.54, 67.06 43.95, 10.9 43.61 M10.9 43.61 C2.56 45.45, 1.18 39.46, 0 32.71 M10.9 43.61 C5 42.18, 1.34 38.23, 0 32.71 M0 32.71 C-1.88 27.49, -1.63 17.57, 0 10.9 M0 32.71 C0.27 26.1, -1.08 19.01, 0 10.9 M0 10.9 C0.76 3.96, 3.84 0.59, 10.9 0 M0 10.9 C-2.01 3.68, 1.39 -1.88, 10.9 0" stroke="#1e1e1e" stroke-width="2" fill="none"></path></g><g transform="translate(79.059168709917 403.2015466755851) rotate(0 40.109954833984375 12.5)"><text x="40.109954833984375" y="17.52" font-family="Virgil, Segoe UI Emoji" font-size="20px" fill="#1e1e1e" text-anchor="middle" style="white-space: pre;" direction="ltr" dominant-baseline="alphabetic">Historial</text></g><g stroke-linecap="round" transform="translate(70.01416426883804 287.8880873852385) rotate(0 55.5 26.5)"><path d="M13.25 0 C45.85 1.14, 78.98 -1.51, 97.75 0 M13.25 0 C45.35 -0.79, 78.51 -0.3, 97.75 0 M97.75 0 C104.68 -0.74, 111.62 4.25, 111 13.25 M97.75 0 C108.64 -0.87, 111.12 5.45, 111 13.25 M111 13.25 C112.31 19.93, 112.72 27.31, 111 39.75 M111 13.25 C110.4 23.9, 111.26 33.88, 111 39.75 M111 39.75 C109.12 46.65, 107.78 51.47, 97.75 53 M111 39.75 C110.18 48.98, 108.55 55.18, 97.75 53 M97.75 53 C70.24 53.36, 40.01 51.58, 13.25 53 M97.75 53 C70.29 53.04, 43.03 51.51, 13.25 53 M13.25 53 C2.92 52.33, 1.98 50.09, 0 39.75 M13.25 53 C5.43 53.33, -1.44 48.86, 0 39.75 M0 39.75 C-0.73 32.32, -0.61 29.36, 0 13.25 M0 39.75 C-0.7 31.11, 1.14 20.97, 0 13.25 M0 13.25 C1.88 4.8, 5.31 1.84, 13.25 0 M0 13.25 C-0.53 5.29, 5.64 1.85, 13.25 0" stroke="#1e1e1e" stroke-width="2" fill="none"></path></g><g transform="translate(83.2942088245021 301.8880873852385) rotate(0 42.21995544433594 12.5)"><text x="42.21995544433594" y="17.52" font-family="Virgil, Segoe UI Emoji" font-size="20px" fill="#1e1e1e" text-anchor="middle" style="white-space: pre;" direction="ltr" dominant-baseline="alphabetic">Telefono</text></g><g stroke-linecap="round"><g transform="translate(326.3097149510151 342.2637744888544) rotate(0 -0.5 21)"><path d="M-0.25 0.52 C-0.38 7.57, -0.65 35.13, -0.78 42.09 M0.62 0.31 C0.44 7.21, -0.76 34.33, -1.09 41.17" stroke="#1e1e1e" stroke-width="2" fill="none"></path></g></g><mask></mask><g stroke-linecap="round" transform="translate(474.76801289145357 289.9744474296851) rotate(0 55.5 26.5)"><path d="M13.25 0 C39.41 1.37, 65.7 2.37, 97.75 0 M13.25 0 C45.92 -0.45, 77.54 0.65, 97.75 0 M97.75 0 C107.62 -0.63, 111.27 3.49, 111 13.25 M97.75 0 C106.45 -1.28, 111.7 6.38, 111 13.25 M111 13.25 C110.17 20.5, 110.21 29.5, 111 39.75 M111 13.25 C110.36 20.33, 110.42 25.86, 111 39.75 M111 39.75 C110.26 49.86, 106.54 53.52, 97.75 53 M111 39.75 C110.5 46.59, 106.95 53.56, 97.75 53 M97.75 53 C65.19 51.29, 32.9 51.75, 13.25 53 M97.75 53 C78.35 51.94, 59.83 51.92, 13.25 53 M13.25 53 C2.79 52.85, -1.98 49.5, 0 39.75 M13.25 53 C2.92 53.92, 1.82 46.47, 0 39.75 M0 39.75 C0.14 33.8, -1.5 27.25, 0 13.25 M0 39.75 C-1.03 32.17, 0.01 23.51, 0 13.25 M0 13.25 C0.96 5.56, 5.92 -0.31, 13.25 0 M0 13.25 C-1.61 2.71, 4.17 0.59, 13.25 0" stroke="#1e1e1e" stroke-width="2" fill="none"></path></g><g transform="translate(498.67804707114107 303.9744474296851) rotate(0 31.5899658203125 12.5)"><text x="31.5899658203125" y="17.52" font-family="Virgil, Segoe UI Emoji" font-size="20px" fill="#1e1e1e" text-anchor="middle" style="white-space: pre;" direction="ltr" dominant-baseline="alphabetic">Correo</text></g><g stroke-linecap="round"><g transform="translate(528.2173558986452 153.94313281831256) rotate(0 -0.5 21)"><path d="M0.54 0.28 C0.43 7.22, -0.4 34.67, -0.66 41.62 M0.15 -0.06 C0 6.95, -0.66 35.02, -0.92 42.12" stroke="#1e1e1e" stroke-width="2" fill="none"></path></g></g><mask></mask><g stroke-linecap="round"><g transform="translate(326.667128652808 250.97470543613605) rotate(0 -0.5 21)"><path d="M-0.28 0.14 C-0.4 7.24, -0.43 35.26, -0.59 42.27 M0.58 -0.27 C0.41 6.71, -0.43 34.52, -0.8 41.45" stroke="#1e1e1e" stroke-width="2" fill="none"></path></g></g><mask></mask><g stroke-linecap="round"><g transform="translate(131.28255890755412 254.2440850038094) rotate(0 91.38900687040433 17.354176608818193)"><path d="M-0.81 -0.66 C29.61 4.93, 151.41 28.12, 182 33.88 M0.97 1.61 C31.81 7.3, 154.15 29.45, 184.31 34.98" stroke="#1e1e1e" stroke-width="2" fill="none"></path></g></g><mask></mask><g stroke-linecap="round"><g transform="translate(511.2122738453718 249.86142258115768) rotate(0 -85 18.5)"><path d="M0.84 -0.45 C-27.38 5.65, -141.07 30.19, -169.63 36.29 M-0.18 -1.73 C-28.49 4.54, -141.81 30.99, -170.39 37.46" stroke="#1e1e1e" stroke-width="2" fill="none"></path></g></g><mask></mask><g stroke-linecap="round"><g transform="translate(317.3627778223863 15.590143554913311) rotate(0 190.08753482094016 142.39532178342833)"><path d="M0.14 0.05 C63.8 21.78, 370.24 82.09, 380.82 129.48 C391.4 176.86, 116.4 258.58, 63.61 284.34 M-1.25 -0.98 C62.42 21.04, 369.56 83.29, 380.21 131.03 C390.85 178.76, 115.25 259.8, 62.62 285.42" stroke="#f08c00" stroke-width="2" fill="none"></path></g></g><mask></mask></svg>