<svg version="1.1" xmlns="http://www.w3.org/2000/svg" viewBox="0 0 633.8571788242884 348.7587320875873" width="633.8571788242884" height="348.7587320875873">
  <!-- svg-source:excalidraw -->
  
  <defs>
    <style class="style-fonts">
      @font-face {
        font-family: "Virgil";
        src: url("https://excalidraw.com/Virgil.woff2");
      }
      @font-face {
        font-family: "Cascadia";
        src: url("https://excalidraw.com/Cascadia.woff2");
      }
      @font-face {
        font-family: "Assistant";
        src: url("https://excalidraw.com/Assistant-Regular.woff2");
      }
    </style>
    
  </defs>
  <rect x="0" y="0" width="633.8571788242884" height="348.7587320875873" fill="#ffffff"></rect><g stroke-linecap="round" transform="translate(485.8571788242885 140.66665703909734) rotate(0 69 28)"><path d="M14 0 C41.02 -0.56, 67.29 0.19, 124 0 M14 0 C51.32 1.08, 89.8 -0.38, 124 0 M124 0 C131.74 0.56, 139.63 5.39, 138 14 M124 0 C134.4 -1.09, 136.11 3.89, 138 14 M138 14 C138.56 18.74, 137.74 24.28, 138 42 M138 14 C139.04 22.5, 138.92 32.43, 138 42 M138 42 C138.11 49.47, 134.44 57.06, 124 56 M138 42 C138.41 52.24, 132.81 57.37, 124 56 M124 56 C97.26 58.3, 75.8 58.54, 14 56 M124 56 C94.47 57.29, 66.23 56.2, 14 56 M14 56 C4.31 56.49, -0.03 50.51, 0 42 M14 56 C2.4 55.91, 2.06 50.2, 0 42 M0 42 C0.49 32.43, 1.48 27, 0 14 M0 42 C-0.92 31.51, -1 20.31, 0 14 M0 14 C0.58 2.77, 6.48 1.52, 14 0 M0 14 C1.26 5.02, 6.29 1.68, 14 0" stroke="#1e1e1e" stroke-width="2" fill="none"></path></g><g transform="translate(510.8272258213588 156.16665703909734) rotate(0 44.02995300292969 12.5)"><text x="44.02995300292969" y="17.52" font-family="Virgil, Segoe UI Emoji" font-size="20px" fill="#1e1e1e" text-anchor="middle" style="white-space: pre;" direction="ltr" dominant-baseline="alphabetic">Producto</text></g><g stroke-linecap="round" transform="translate(10 10) rotate(0 68.99999999999997 28)"><path d="M14 0 C50.76 1.01, 91.47 0.61, 124 0 M14 0 C52.82 0.82, 90.26 0.93, 124 0 M124 0 C134.96 -0.41, 137.05 2.72, 138 14 M124 0 C132.97 0.15, 140.28 5.97, 138 14 M138 14 C139.21 22.62, 138.9 28.87, 138 42 M138 14 C137.59 21.2, 138.03 28.75, 138 42 M138 42 C138.67 49.75, 132.79 56.19, 124 56 M138 42 C137.32 50.58, 134.5 55.94, 124 56 M124 56 C98.67 53.94, 75.48 57.15, 14 56 M124 56 C86.54 54.64, 48.37 56.35, 14 56 M14 56 C3.78 55.03, 1.29 50.38, 0 42 M14 56 C5.25 55.84, 1.86 52.49, 0 42 M0 42 C0.39 33.85, -1.28 25.01, 0 14 M0 42 C0.38 33.56, -0.95 26.26, 0 14 M0 14 C-1.13 5.31, 5.52 1.95, 14 0 M0 14 C1.3 5.5, 6.06 0.7, 14 0" stroke="#1e1e1e" stroke-width="2" fill="none"></path></g><g transform="translate(46.48003387451172 25.5) rotate(0 32.51996612548828 12.5)"><text x="32.51996612548828" y="17.52" font-family="Virgil, Segoe UI Emoji" font-size="20px" fill="#1e1e1e" text-anchor="middle" style="white-space: pre;" direction="ltr" dominant-baseline="alphabetic">Cliente</text></g><g stroke-linecap="round" transform="translate(243.8096520560129 282.4761804853167) rotate(0 69 28)"><path d="M14 0 C45.99 -1.11, 80.86 0.8, 124 0 M14 0 C38.89 0.22, 64.83 0.53, 124 0 M124 0 C134.63 -0.63, 136.92 3.36, 138 14 M124 0 C133.85 -1.35, 136.22 6.52, 138 14 M138 14 C139.08 19.7, 136.5 27.66, 138 42 M138 14 C137.74 22.61, 137.9 28.85, 138 42 M138 42 C138.25 49.53, 132.26 57.24, 124 56 M138 42 C138.42 50.47, 132.61 57.77, 124 56 M124 56 C88.02 56.93, 48.56 56.3, 14 56 M124 56 C100.52 56.23, 78.26 56, 14 56 M14 56 C3.68 54.81, 0.03 50.25, 0 42 M14 56 C5.61 55.88, 1.29 50, 0 42 M0 42 C0.98 34.03, -1.22 21.56, 0 14 M0 42 C0.54 34.34, 0.33 27.15, 0 14 M0 14 C-1.76 5.98, 5.18 0.16, 14 0 M0 14 C1.5 3.47, 6.94 1.04, 14 0" stroke="#1e1e1e" stroke-width="2" fill="none"></path></g><g transform="translate(270.80969020298556 297.9761804853167) rotate(0 41.999961853027344 12.5)"><text x="41.999961853027344" y="17.52" font-family="Virgil, Segoe UI Emoji" font-size="20px" fill="#1e1e1e" text-anchor="middle" style="white-space: pre;" direction="ltr" dominant-baseline="alphabetic">Vendedor</text></g><g stroke-linecap="round" transform="translate(235.66677965436662 13.523813520158996) rotate(0 69 28)"><path d="M14 0 C49.23 0.34, 80.78 -0.53, 124 0 M14 0 C41.42 -1.1, 67.48 -1.06, 124 0 M124 0 C132.36 0.57, 138.13 3.68, 138 14 M124 0 C131.72 1.37, 139.59 5.61, 138 14 M138 14 C139.79 19, 137.43 25.23, 138 42 M138 14 C137.55 25.28, 136.9 34.82, 138 42 M138 42 C138.84 52.22, 132.68 57.87, 124 56 M138 42 C138.38 52.26, 132.81 57.63, 124 56 M124 56 C97.08 57.73, 72.83 58.21, 14 56 M124 56 C87.04 57.09, 51.51 55.93, 14 56 M14 56 C2.95 54.03, -1.72 49.61, 0 42 M14 56 C2.42 53.86, 0.5 53.63, 0 42 M0 42 C0.15 33.84, -0.94 27.43, 0 14 M0 42 C0.88 31.59, -0.88 22.14, 0 14 M0 14 C-0.38 4.12, 4.99 -0.9, 14 0 M0 14 C1.98 3.5, 2.43 1.01, 14 0" stroke="#1e1e1e" stroke-width="2" fill="none"></path></g><g transform="translate(277.2768031529018 29.023813520158996) rotate(0 27.389976501464844 12.5)"><text x="27.389976501464844" y="17.52" font-family="Virgil, Segoe UI Emoji" font-size="20px" fill="#1e1e1e" text-anchor="middle" style="white-space: pre;" direction="ltr" dominant-baseline="alphabetic">Orden</text></g><g stroke-linecap="round" transform="translate(13.352991024649953 282.7587320875873) rotate(0 69 28)"><path d="M14 0 C46.14 -0.49, 78.24 -0.78, 124 0 M14 0 C43.87 1.34, 73.77 1.7, 124 0 M124 0 C135.25 -1.28, 136.5 6.36, 138 14 M124 0 C131.43 1.47, 136.86 6.02, 138 14 M138 14 C136.67 24.41, 136.45 36.41, 138 42 M138 14 C137.23 23.91, 137.65 34.25, 138 42 M138 42 C137.96 51.69, 131.72 55.13, 124 56 M138 42 C136.72 49.17, 132.12 55.55, 124 56 M124 56 C96.05 56.99, 71.48 55.39, 14 56 M124 56 C98.59 56.53, 72.94 55.88, 14 56 M14 56 C4.36 56.07, 0.79 53.3, 0 42 M14 56 C3.22 55.1, -0.08 50.99, 0 42 M0 42 C1.65 31.52, -0.05 25.84, 0 14 M0 42 C-0.16 31.43, 0.34 23.4, 0 14 M0 14 C1.37 4.34, 5.26 -0.14, 14 0 M0 14 C-1.81 3.6, 3.7 2.05, 14 0" stroke="#1e1e1e" stroke-width="2" fill="none"></path></g><g transform="translate(61.45301238695464 298.2587320875873) rotate(0 20.899978637695312 12.5)"><text x="20.899978637695312" y="17.52" font-family="Virgil, Segoe UI Emoji" font-size="20px" fill="#1e1e1e" text-anchor="middle" style="white-space: pre;" direction="ltr" dominant-baseline="alphabetic">Pais</text></g><g stroke-linecap="round" transform="translate(239.1029986540446 145.00873590228463) rotate(0 69 28)"><path d="M14 0 C40.36 -0.75, 66.23 2.04, 124 0 M14 0 C54.88 -0.13, 97.1 0.09, 124 0 M124 0 C134.49 1.92, 136.18 4.37, 138 14 M124 0 C132.39 0.73, 139.97 6.58, 138 14 M138 14 C137.33 22.09, 138.52 31.26, 138 42 M138 14 C138.02 24.35, 137.98 33.26, 138 42 M138 42 C139.32 51.55, 135.05 56.31, 124 56 M138 42 C139.13 50.75, 131.34 54.42, 124 56 M124 56 C98.16 53.8, 73.85 55.06, 14 56 M124 56 C92.99 57.18, 60.33 57.67, 14 56 M14 56 C3.12 55.2, -1.35 50.13, 0 42 M14 56 C5.98 57.6, 1.9 52.2, 0 42 M0 42 C-1.67 35.72, 0.71 27.63, 0 14 M0 42 C0.18 37.19, -0.52 29.57, 0 14 M0 14 C1.41 3.9, 5.34 -1.82, 14 0 M0 14 C-0.94 3.52, 4.96 1.57, 14 0" stroke="#1e1e1e" stroke-width="2" fill="none"></path></g><g transform="translate(255.05304137865397 160.50873590228463) rotate(0 53.049957275390625 12.5)"><text x="53.049957275390625" y="17.52" font-family="Virgil, Segoe UI Emoji" font-size="20px" fill="#1e1e1e" text-anchor="middle" style="white-space: pre;" direction="ltr" dominant-baseline="alphabetic">DatoOrden</text></g><g stroke-linecap="round"><g transform="translate(79.35303680101714 63.75874353167916) rotate(0 1.4999961853027344 109.0000057220459)"><path d="M-0.6 -1.06 C-0.03 35.21, 3.34 181.05, 3.88 217.4 M1.29 0.99 C1.73 37.44, 3.32 182.48, 3.39 218.63" stroke="#1e1e1e" stroke-width="2" fill="none"></path></g></g><mask></mask><g stroke-linecap="round"><g transform="translate(148.35301391283355 36.758754975770955) rotate(0 44.00001525878906 0)"><path d="M-0.78 0.6 C13.68 0.48, 72.79 -0.48, 87.69 -0.49 M1.02 -0.14 C15.2 -0.11, 72.05 1.02, 86.57 0.78" stroke="#1e1e1e" stroke-width="2" fill="none"></path></g></g><mask></mask><g stroke-linecap="round"><g transform="translate(306.35304443041167 69.75874734637642) rotate(0 1.4999961853027344 37.5)"><path d="M-0.92 -0.09 C-0.66 12.35, 1.07 63.17, 1.84 75.49 M0.8 -1.19 C1.39 10.82, 3.52 61, 3.94 73.62" stroke="#1e1e1e" stroke-width="2" fill="none"></path></g></g><mask></mask><g stroke-linecap="round"><g transform="translate(309.35303680101714 199.75874734637642) rotate(0 0.49999237060546875 41.499996185302734)"><path d="M-0.73 0.59 C-0.5 14.57, 1.69 69.42, 2.06 82.96 M1.08 -0.15 C1.19 14.11, 1.69 70.69, 1.67 84.48" stroke="#1e1e1e" stroke-width="2" fill="none"></path></g></g><mask></mask><g stroke-linecap="round"><g transform="translate(150.35302154222808 312.7587397169819) rotate(0 47.00000762939453 0.5000114440917969)"><path d="M-0.37 -0.76 C15.15 -0.56, 78.66 -0.28, 94.33 0.16 M1.63 1.46 C16.93 1.87, 78.38 1.5, 93.56 1.25" stroke="#1e1e1e" stroke-width="2" fill="none"></path></g></g><mask></mask><g stroke-linecap="round"><g transform="translate(486.353006283439 169.75874734637642) rotate(0 -54.499969482421875 -0.49999237060546875)"><path d="M0.19 -0.32 C-18.24 -0.76, -91.38 -1.63, -109.49 -1.67 M-1.18 -1.53 C-19.9 -1.91, -92.72 -0.29, -110.69 -0.48" stroke="#1e1e1e" stroke-width="2" fill="none"></path></g></g><mask></mask></svg>