<svg version="1.1" xmlns="http://www.w3.org/2000/svg" viewBox="0 0 553.0476335797991 292.1904689243861" width="553.0476335797991" height="292.1904689243861">
  <!-- svg-source:excalidraw -->
  
  <defs>
    <style class="style-fonts">
      @font-face {
        font-family: "Virgil";
        src: url("https://excalidraw.com/Virgil.woff2");
      }
      @font-face {
        font-family: "Cascadia";
        src: url("https://excalidraw.com/Cascadia.woff2");
      }
      @font-face {
        font-family: "Assistant";
        src: url("https://excalidraw.com/Assistant-Regular.woff2");
      }
    </style>
    
  </defs>
  <rect x="0" y="0" width="553.0476335797991" height="292.1904689243861" fill="#ffffff"></rect><g stroke-linecap="round" transform="translate(405.0476335797991 226.19046892438612) rotate(0 69 28)"><path d="M14 0 C41.02 -0.56, 67.29 0.19, 124 0 M14 0 C51.32 1.08, 89.8 -0.38, 124 0 M124 0 C131.74 0.56, 139.63 5.39, 138 14 M124 0 C134.4 -1.09, 136.11 3.89, 138 14 M138 14 C138.56 18.74, 137.74 24.28, 138 42 M138 14 C139.04 22.5, 138.92 32.43, 138 42 M138 42 C138.11 49.47, 134.44 57.06, 124 56 M138 42 C138.41 52.24, 132.81 57.37, 124 56 M124 56 C97.26 58.3, 75.8 58.54, 14 56 M124 56 C94.47 57.29, 66.23 56.2, 14 56 M14 56 C4.31 56.49, -0.03 50.51, 0 42 M14 56 C2.4 55.91, 2.06 50.2, 0 42 M0 42 C0.49 32.43, 1.48 27, 0 14 M0 42 C-0.92 31.51, -1 20.31, 0 14 M0 14 C0.58 2.77, 6.48 1.52, 14 0 M0 14 C1.26 5.02, 6.29 1.68, 14 0" stroke="#1e1e1e" stroke-width="2" fill="none"></path></g><g transform="translate(430.0176805768694 241.69046892438612) rotate(0 44.02995300292969 12.5)"><text x="44.02995300292969" y="17.52" font-family="Virgil, Segoe UI Emoji" font-size="20px" fill="#1e1e1e" text-anchor="middle" style="white-space: pre;" direction="ltr" dominant-baseline="alphabetic">Producto</text></g><g stroke-linecap="round" transform="translate(12.190447126116055 217.52383858816964) rotate(0 68.99999999999997 28)"><path d="M14 0 C50.76 1.01, 91.47 0.61, 124 0 M14 0 C52.82 0.82, 90.26 0.93, 124 0 M124 0 C134.96 -0.41, 137.05 2.72, 138 14 M124 0 C132.97 0.15, 140.28 5.97, 138 14 M138 14 C139.21 22.62, 138.9 28.87, 138 42 M138 14 C137.59 21.2, 138.03 28.75, 138 42 M138 42 C138.67 49.75, 132.79 56.19, 124 56 M138 42 C137.32 50.58, 134.5 55.94, 124 56 M124 56 C98.67 53.94, 75.48 57.15, 14 56 M124 56 C86.54 54.64, 48.37 56.35, 14 56 M14 56 C3.78 55.03, 1.29 50.38, 0 42 M14 56 C5.25 55.84, 1.86 52.49, 0 42 M0 42 C0.39 33.85, -1.28 25.01, 0 14 M0 42 C0.38 33.56, -0.95 26.26, 0 14 M0 14 C-1.13 5.31, 5.52 1.95, 14 0 M0 14 C1.3 5.5, 6.06 0.7, 14 0" stroke="#1e1e1e" stroke-width="2" fill="none"></path></g><g transform="translate(48.670481000627774 233.02383858816964) rotate(0 32.51996612548828 12.5)"><text x="32.51996612548828" y="17.52" font-family="Virgil, Segoe UI Emoji" font-size="20px" fill="#1e1e1e" text-anchor="middle" style="white-space: pre;" direction="ltr" dominant-baseline="alphabetic">Cliente</text></g><g stroke-linecap="round" transform="translate(10 10) rotate(0 69.00000000000003 28)"><path d="M14 0 C45.99 -1.11, 80.86 0.8, 124 0 M14 0 C38.89 0.22, 64.83 0.53, 124 0 M124 0 C134.63 -0.63, 136.92 3.36, 138 14 M124 0 C133.85 -1.35, 136.22 6.52, 138 14 M138 14 C139.08 19.7, 136.5 27.66, 138 42 M138 14 C137.74 22.61, 137.9 28.85, 138 42 M138 42 C138.25 49.53, 132.26 57.24, 124 56 M138 42 C138.42 50.47, 132.61 57.77, 124 56 M124 56 C88.02 56.93, 48.56 56.3, 14 56 M124 56 C100.52 56.23, 78.26 56, 14 56 M14 56 C3.68 54.81, 0.03 50.25, 0 42 M14 56 C5.61 55.88, 1.29 50, 0 42 M0 42 C0.98 34.03, -1.22 21.56, 0 14 M0 42 C0.54 34.34, 0.33 27.15, 0 14 M0 14 C-1.76 5.98, 5.18 0.16, 14 0 M0 14 C1.5 3.47, 6.94 1.04, 14 0" stroke="#1e1e1e" stroke-width="2" fill="none"></path></g><g transform="translate(37.000038146972656 25.5) rotate(0 41.999961853027344 12.5)"><text x="41.999961853027344" y="17.52" font-family="Virgil, Segoe UI Emoji" font-size="20px" fill="#1e1e1e" text-anchor="middle" style="white-space: pre;" direction="ltr" dominant-baseline="alphabetic">Vendedor</text></g><g stroke-linecap="round" transform="translate(230.85714285714283 119.0476444789341) rotate(0 69 28)"><path d="M14 0 C49.23 0.34, 80.78 -0.53, 124 0 M14 0 C41.42 -1.1, 67.48 -1.06, 124 0 M124 0 C132.36 0.57, 138.13 3.68, 138 14 M124 0 C131.72 1.37, 139.59 5.61, 138 14 M138 14 C139.79 19, 137.43 25.23, 138 42 M138 14 C137.55 25.28, 136.9 34.82, 138 42 M138 42 C138.84 52.22, 132.68 57.87, 124 56 M138 42 C138.38 52.26, 132.81 57.63, 124 56 M124 56 C97.08 57.73, 72.83 58.21, 14 56 M124 56 C87.04 57.09, 51.51 55.93, 14 56 M14 56 C2.95 54.03, -1.72 49.61, 0 42 M14 56 C2.42 53.86, 0.5 53.63, 0 42 M0 42 C0.15 33.84, -0.94 27.43, 0 14 M0 42 C0.88 31.59, -0.88 22.14, 0 14 M0 14 C-0.38 4.12, 4.99 -0.9, 14 0 M0 14 C1.98 3.5, 2.43 1.01, 14 0" stroke="#1e1e1e" stroke-width="2" fill="none"></path></g><g transform="translate(272.467166355678 134.5476444789341) rotate(0 27.389976501464844 12.5)"><text x="27.389976501464844" y="17.52" font-family="Virgil, Segoe UI Emoji" font-size="20px" fill="#1e1e1e" text-anchor="middle" style="white-space: pre;" direction="ltr" dominant-baseline="alphabetic">Orden</text></g><g stroke-linecap="round"><g transform="translate(143.93255421472082 62.630974179222505) rotate(0 44.761897495814765 30.952377319335938)"><path d="M0.79 -0.38 C15.36 9.99, 73.38 52.48, 88.34 62.81 M-0.25 -1.62 C14.58 8.36, 75.34 50.43, 90.44 61.16" stroke="#1e1e1e" stroke-width="2" fill="none"></path></g></g><mask></mask><g stroke-linecap="round"><g transform="translate(147.74206349206457 221.67858596075152) rotate(0 42.85714285714289 -24.761897495814736)"><path d="M0.9 -0.07 C15.05 -8.03, 71.89 -40.56, 86.14 -48.62 M-0.09 -1.15 C13.84 -9.36, 71.08 -42.09, 85.41 -50.27" stroke="#1e1e1e" stroke-width="2" fill="none"></path></g></g><mask></mask><g stroke-linecap="round"><g transform="translate(364.8849206349217 172.15479096912205) rotate(0 21.904776436941972 29.047611781529042)"><path d="M-0.26 -0.54 C6.79 9.02, 35.1 47.33, 42.62 57.04 M1.8 1.79 C9.17 11.48, 37.57 48.52, 44.7 58.03" stroke="#1e1e1e" stroke-width="2" fill="none"></path></g></g><mask></mask></svg>